PathFileType  4	(X/Y/Z) C:\Users\antoi\Documents\MyRepositories\mobilecap\ResultsAnalysis
DataRate	CameraRate	NumFrames	NumMarkers	Units	OrigDataRate	OrigDataStartFrame	OrigNumFrames
100.0	100.0	4	51	mm	100.0	1	1338
Frame#	Time	r_knee			r_shank_antsup			r_ankle			r_calc			r_5meta			r_toe			L_knee			L_shank_antsup			L_ankle			L_calc			L_5meta			L_toe			r_sh2			r_sh3			r_sh4			L_sh2			L_sh3			r_thigh1			r_thigh2			r_thigh3			r_thigh4			r_thigh5			L_thigh1			L_thigh2			L_thigh3			L_thigh4			r.ASIS			r.PSIS			L.ASIS			L.PSIS			C7			R_Shoulder			L_Shoulder			R_Sternum			L_Sternum			R_humerus			R_elbow_med			R_elbow_lat			R_forearm			R_wrist_radius			R_wrist_ulna			L_humerus			L_elbow_med			L_elbow_lat			L_forearm			L_wrist_radius			L_wrist_ulna			R_HJC			L_HJC			R_HJC_reg			L_HJC_reg			
		X1	Y1	Z1	X2	Y2	Z2	X3	Y3	Z3	X4	Y4	Z4	X5	Y5	Z5	X6	Y6	Z6	X7	Y7	Z7	X8	Y8	Z8	X9	Y9	Z9	X10	Y10	Z10	X11	Y11	Z11	X12	Y12	Z12	X13	Y13	Z13	X14	Y14	Z14	X15	Y15	Z15	X16	Y16	Z16	X17	Y17	Z17	X18	Y18	Z18	X19	Y19	Z19	X20	Y20	Z20	X21	Y21	Z21	X22	Y22	Z22	X23	Y23	Z23	X24	Y24	Z24	X25	Y25	Z25	X26	Y26	Z26	X27	Y27	Z27	X28	Y28	Z28	X29	Y29	Z29	X30	Y30	Z30	X31	Y31	Z31	X32	Y32	Z32	X33	Y33	Z33	X34	Y34	Z34	X35	Y35	Z35	X36	Y36	Z36	X37	Y37	Z37	X38	Y38	Z38	X39	Y39	Z39	X40	Y40	Z40	X41	Y41	Z41	X42	Y42	Z42	X43	Y43	Z43	X44	Y44	Z44	X45	Y45	Z45	X46	Y46	Z46	X47	Y47	Z47	X48	Y48	Z48	X49	Y49	Z49	X50	Y50	Z50	X51	Y51	Z51	

1	0.00000000	-203.12929	497.98508	-374.92210	-177.96508	405.59452	-379.10087	-277.26710	91.90757	-389.27347	-336.21354	57.63636	-440.75376	-159.02512	44.61799	-345.31064	-123.94376	70.18509	-398.94129	-172.03123	511.07091	-748.44897	-143.81321	426.15632	-756.18637	-257.14792	106.34178	-794.62286	-325.01184	63.86052	-741.44160	-160.80058	40.30822	-847.26490	-106.34466	63.50466	-797.06159	-194.00573	292.94123	-381.29769	-241.58505	411.58585	-338.27762	-262.64788	299.82974	-336.08968	-225.71683	458.13598	-779.98304	-251.78995	341.35046	-803.75391	-123.09782	774.23750	-364.21531	-126.25854	663.81050	-373.41502	-179.39236	637.22634	-340.85647	-234.73834	771.42548	-342.88062	-230.04170	656.02221	-354.58918	-104.78039	758.68181	-724.72821	-88.00692	619.46130	-729.89966	-210.35917	749.85094	-755.12488	-195.68567	616.61516	-749.68420	-86.13795	960.76403	-408.22686	-290.63838	1010.51720	-495.22085	-86.65338	963.71155	-668.12085	-287.19525	1011.78766	-589.51779	-253.70760	1461.86854	-521.98529	-176.34792	1427.14383	-355.97054	-170.49415	1434.33949	-677.96313	-128.51878	1387.18489	-500.28176	-128.33279	1393.38950	-542.58802	-128.19509	1293.90565	-313.69075	-197.93634	1090.31407	-364.23946	-184.27340	1096.94204	-298.15162	-125.63282	1037.29359	-281.40586	-62.21117	880.42752	-316.18040	-97.05938	876.20862	-281.04377	-132.54986	1295.80914	-734.02909	-194.00232	1093.26160	-687.16854	-171.57301	1105.72124	-762.70778	-116.34559	1053.41092	-770.38094	-54.20082	885.61930	-744.24077	-86.52676	886.05786	-785.87878	-177.49397	880.98018	-439.30744	-174.13857	883.61807	-628.82190	-168.32782	888.14768	-449.02255	-162.06894	890.45708	-620.43417	
2	0.01000000	-203.20765	497.98394	-374.98767	-178.03856	405.59223	-379.13237	-277.27805	91.88365	-389.38469	-336.24375	57.63969	-440.77076	-159.02306	44.62493	-345.31553	-123.91311	70.15528	-398.97622	-172.04240	511.04716	-748.44608	-143.85379	426.09784	-756.15403	-257.16225	106.31455	-794.62266	-324.94300	63.95782	-741.59337	-160.81608	40.30687	-847.18636	-106.38230	63.50814	-797.15303	-194.01497	292.91160	-381.41172	-241.70089	411.74032	-338.21587	-262.68969	299.79891	-336.06228	-225.72337	458.10396	-779.99256	-251.80620	341.38413	-803.68515	-123.08216	774.18797	-364.19809	-126.27540	663.86346	-373.44035	-179.46015	637.26415	-340.94851	-234.69994	771.40580	-342.95765	-230.05009	655.99117	-354.60260	-104.78425	758.67543	-724.74035	-88.03420	619.42129	-729.89203	-210.39833	749.82550	-755.12855	-195.73953	616.52188	-749.61891	-86.23654	960.81262	-408.20039	-290.66070	1010.54003	-495.22955	-86.69051	963.66764	-668.19187	-287.23370	1011.77909	-589.51667	-253.77668	1461.85442	-522.02792	-176.39546	1427.12660	-355.93828	-170.56106	1434.36540	-677.93900	-128.62326	1387.18589	-500.35315	-128.43420	1393.38467	-542.67346	-128.19600	1293.91383	-313.68545	-197.75714	1090.35884	-364.29177	-184.27859	1096.94073	-298.13422	-125.59117	1037.31447	-281.35543	-62.23183	880.42332	-316.17383	-97.12119	876.26793	-280.92646	-132.60957	1295.80226	-733.99431	-194.01410	1093.28021	-687.12517	-171.61671	1105.77292	-762.85212	-116.38535	1053.48163	-770.49384	-54.25829	885.64176	-744.32338	-86.57270	886.16773	-786.07228	-177.55123	881.01569	-439.28744	-174.19472	883.59420	-628.80269	-168.38791	888.15739	-448.97528	-162.15533	890.41079	-620.45229	
3	0.02000000	-203.23429	498.03148	-374.97801	-178.04280	405.61747	-379.09026	-277.27743	91.87737	-389.48775	-336.26839	57.65436	-440.75954	-159.07085	44.61703	-345.30217	-123.92257	70.13494	-398.96658	-172.05193	511.01892	-748.44336	-143.85248	426.09211	-756.19120	-257.17534	106.30457	-794.60998	-324.89162	63.95866	-741.65545	-160.82252	40.28612	-847.23008	-106.36283	63.51332	-797.12881	-194.06006	292.92188	-381.41579	-241.70897	411.78010	-338.24908	-262.78923	299.76410	-336.08361	-225.74034	458.09057	-779.98879	-251.81591	341.38571	-803.66794	-123.12004	774.17525	-364.18338	-126.30931	663.86254	-373.47311	-179.44979	637.31249	-340.93611	-234.75125	771.44028	-342.97713	-230.07643	656.05273	-354.55695	-104.81064	758.66585	-724.75790	-88.07165	619.36349	-729.86241	-210.43865	749.79739	-755.12247	-195.77311	616.47901	-749.60122	-86.30801	960.83552	-408.19369	-290.71022	1010.51412	-495.32677	-86.73123	963.66409	-668.17901	-287.29675	1011.65590	-589.60570	-253.85375	1461.86021	-522.05345	-176.42311	1427.13654	-355.91707	-170.63943	1434.38854	-677.90186	-128.70828	1387.18476	-500.42327	-128.54026	1393.42685	-542.70523	-128.18643	1293.92076	-313.70869	-197.68825	1090.36913	-364.29209	-184.27856	1096.94539	-298.12646	-125.57016	1037.32273	-281.31785	-62.25921	880.44911	-316.15084	-97.14467	876.31072	-280.85379	-132.65629	1295.81866	-733.98674	-194.15785	1093.26609	-687.21506	-171.65656	1105.83733	-762.94644	-116.41112	1053.58056	-770.68995	-54.33226	885.68624	-744.45541	-86.59030	886.27788	-786.28859	-177.59438	881.01304	-439.29927	-174.18620	883.54442	-628.81423	-168.44268	888.27708	-448.88021	-162.23422	890.35376	-620.35590	
4	0.03000000	-203.20982	498.10823	-374.93029	-178.01203	405.63018	-379.06683	-277.25841	91.91132	-389.51906	-336.27348	57.67727	-440.74493	-159.10204	44.60629	-345.28661	-123.93382	70.11539	-398.95911	-172.06184	510.99315	-748.44666	-143.84536	426.09591	-756.22994	-257.18064	106.30123	-794.60558	-324.87468	63.90865	-741.64627	-160.82200	40.26778	-847.29931	-106.32900	63.53146	-797.10246	-194.08342	292.94223	-381.36852	-241.63410	411.75099	-338.33631	-262.82826	299.76915	-336.14364	-225.74812	458.08627	-779.98369	-251.80847	341.39184	-803.67657	-123.17564	774.21065	-364.18751	-126.30104	663.81956	-373.52761	-179.42361	637.33584	-340.89294	-234.84677	771.47749	-342.99550	-230.13434	656.12213	-354.50628	-104.84846	758.64985	-724.77945	-88.10408	619.32280	-729.84367	-210.48013	749.76544	-755.10491	-195.79145	616.46700	-749.61791	-86.36335	960.81545	-408.18533	-290.77299	1010.44482	-495.42629	-86.77696	963.65891	-668.16242	-287.36294	1011.48274	-589.75228	-253.94799	1461.86987	-522.05085	-176.44206	1427.14976	-355.91128	-170.72392	1434.40427	-677.87906	-128.77444	1387.18915	-500.48673	-128.66720	1393.50097	-542.64361	-128.18802	1293.91034	-313.71131	-197.67976	1090.36052	-364.29258	-184.26830	1096.95879	-298.10441	-125.55839	1037.33446	-281.29427	-62.27362	880.47833	-316.08124	-97.12643	876.32454	-280.82308	-132.70526	1295.86605	-734.01864	-194.29772	1093.28036	-687.39020	-171.68479	1105.89554	-762.98238	-116.43046	1053.66682	-770.84807	-54.38596	885.75525	-744.61844	-86.59895	886.34401	-786.42450	-177.63170	880.96709	-439.33464	-174.15938	883.47084	-628.84881	-168.50068	888.38149	-448.78440	-162.30168	890.26832	-620.25729	
